<?xml version="1.0" standalone="no"?>
<!DOCTYPE svg PUBLIC "-//W3C//DTD SVG 20010904//EN"
 "http://www.w3.org/TR/2001/REC-SVG-20010904/DTD/svg10.dtd">
<svg version="1.0" xmlns="http://www.w3.org/2000/svg"
 width="512.000000pt" height="512.000000pt" viewBox="0 0 512.000000 512.000000"
 preserveAspectRatio="xMidYMid meet">
<metadata>
Created by potrace 1.11, written by Peter Selinger 2001-2013
</metadata>
<g transform="translate(0.000000,512.000000) scale(0.100000,-0.100000)"
fill="#000000" stroke="none">
<path d="M3388 3953 l-3 -208 -2 203 c-2 111 -7 202 -11 201 -4 0 -371 -98
-817 -218 l-810 -217 -5 -305 -5 -304 -3 307 -2 307 -37 10 c-21 5 -267 72
-548 148 -443 120 -520 138 -586 138 -65 0 -81 -4 -116 -27 -26 -17 -49 -45
-64 -75 l-24 -48 0 -1300 0 -1300 32 -67 c41 -87 99 -149 176 -187 42 -21 241
-79 605 -176 299 -80 547 -145 553 -145 5 0 10 102 11 253 l2 252 6 -251 5
-250 755 202 c415 111 783 210 817 219 l63 17 3 847 2 846 3 -850 2 -850 578
-153 c317 -84 586 -153 597 -153 74 3 141 46 178 115 l22 41 0 1300 0 1300
-23 58 c-29 71 -117 169 -182 202 -26 13 -150 51 -276 85 -425 114 -859 231
-876 236 -17 5 -18 -10 -20 -203z m-1651 -1735 c-1 -79 -3 -15 -3 142 0 157 2
221 3 143 2 -79 2 -207 0 -285z"/>
</g>
</svg>
